Coordinates
version=1
nRows=29
nColumns=22
inDegrees=yes

Units are S.I. units (second, meters, Newtons, ...)
If the header above contains a line with 'inDegrees', this indicates whether rotational values are in degrees (yes) or radians (no).

endheader
time	pelvis_tilt	pelvis_list	pelvis_rotation	pelvis_tx	pelvis_ty	pelvis_tz	hip_flexion_r	hip_adduction_r	hip_rotation_r	knee_angle_r	ankle_angle_r	subtalar_angle_r	hip_flexion_l	hip_adduction_l	hip_rotation_l	knee_angle_l	ankle_angle_l	subtalar_angle_l	lumbar_extension	lumbar_bending	lumbar_rotation
      2.79000000	     -5.38437564	     -4.62053731	    -21.20996817	      1.35957527	      0.94217032	      0.56124772	     13.57429010	      9.07503295	      0.12464507	    -46.16676508	     27.56358913	     -0.07776864	     39.92520666	     -9.75113406	     -4.13053766	    -27.36502305	     -2.50284037	     14.14823732	     -5.14483857	      9.13602957	     15.78790325
      2.80000000	     -5.48114586	     -4.52764409	    -21.15214907	      1.37287942	      0.94031401	      0.56285820	     13.55258065	      8.71838973	      0.02214149	    -47.45991971	     27.04404490	      1.12155734	     40.18983041	     -9.45929861	     -4.22611902	    -28.98001913	     -1.04087419	     11.12195111	     -4.68393465	      9.10078510	     15.38658493
      2.81000000	     -5.51128676	     -4.36501458	    -21.01002515	      1.38579429	      0.93855874	      0.56426526	     13.70939005	      8.24605060	     -0.12335683	    -49.05717024	     26.29213212	      2.46383989	     40.46834296	     -9.02294004	     -4.11792925	    -30.71378084	      0.39666913	      8.35949609	     -4.32636623	      8.94670786	     14.93192505
      2.82000000	     -5.46486201	     -4.15453771	    -20.83917612	      1.39824688	      0.93700364	      0.56554698	     14.03477651	      7.70604692	     -0.22203693	    -50.95426063	     25.29678459	      3.88747825	     40.71912625	     -8.50920134	     -3.92406644	    -32.49402803	      1.77646399	      6.05316228	     -4.11072006	      8.69530416	     14.50816848
      2.83000000	     -5.38564489	     -3.87561591	    -20.64644179	      1.41020975	      0.93559845	      0.56670990	     14.58835493	      7.09483587	     -0.28252900	    -53.14244937	     24.10200061	      5.18985847	     40.96304891	     -7.92293529	     -3.69853358	    -34.23913785	      3.06532168	      4.27301724	     -3.97842551	      8.34915727	     14.07182261
      2.84000000	     -5.24481625	     -3.50241819	    -20.48057268	      1.42167210	      0.93444419	      0.56783656	     15.33499307	      6.38706899	     -0.25695559	    -55.57384320	     22.76309030	      6.23284793	     41.11665250	     -7.27985145	     -3.57413606	    -35.85161056	      4.25846332	      2.99910066	     -3.94994292	      7.86584918	     13.67676331
      2.85000000	     -5.02708512	     -3.07610332	    -20.37483719	      1.43262285	      0.93362914	      0.56895852	     16.21350463	      5.61980440	     -0.14572236	    -58.16079265	     21.35869118	      6.97875863	     41.11347775	     -6.62045327	     -3.54267317	    -37.27134712	      5.40183176	      2.10734822	     -4.06106245	      7.28999210	     13.39684502
      2.86000000	     -4.77354916	     -2.55052501	    -20.34264090	      1.44306100	      0.93307173	      0.57012996	     17.25706141	      4.76592952	      0.05353192	    -60.83463741	     20.02562654	      7.22962115	     40.99111818	     -5.94434390	     -3.71136402	    -38.46207011	      6.45867219	      1.59421462	     -4.22902670	      6.58773443	     13.14610583
      2.87000000	     -4.51497716	     -1.96973314	    -20.38715925	      1.45297237	      0.93276901	      0.57132861	     18.44526814	      3.86766900	      0.30231803	    -63.48841494	     18.84673563	      7.15482924	     40.76317477	     -5.26980713	     -3.97708725	    -39.40815804	      7.43711727	      1.24673222	     -4.43081161	      5.81830799	     12.99597527
      2.88000000	     -4.34252626	     -1.35024117	    -20.49358754	      1.46239388	      0.93256195	      0.57255111	     19.82332720	      2.97901001	      0.56776123	    -66.01851298	     17.91207008	      6.45702199	     40.54417233	     -4.63828551	     -4.35638806	    -40.14630469	      8.37765783	      0.75365503	     -4.54674099	      5.05255256	     12.80834364
      2.89000000	     -4.18602770	     -0.71387182	    -20.65035303	      1.47134339	      0.93264153	      0.57377180	     21.28078519	      2.08189025	      0.82474591	    -68.33514493	     17.21556634	      5.40423031	     40.24779103	     -4.02605244	     -4.80389537	    -40.65866626	      9.20370446	      0.46014279	     -4.66046632	      4.28009875	     12.62009138
      2.90000000	     -4.09121669	     -0.10544987	    -20.82328862	      1.47984497	      0.93296491	      0.57496383	     22.81279013	      1.23948995	      1.03171865	    -70.35343920	     16.75581015	      4.06761109	     39.93326991	     -3.45703147	     -5.24413472	    -40.98190511	      9.92949744	      0.17649883	     -4.72713387	      3.57246785	     12.37452864
      2.91000000	     -4.06368382	      0.44865191	    -20.98689815	      1.48794078	      0.93355685	      0.57609750	     24.38595323	      0.47794971	      1.16206557	    -72.01711786	     16.52282977	      2.59926401	     39.61107239	     -2.93888974	     -5.64099834	    -41.13856736	     10.55994091	     -0.11218430	     -4.74603350	      2.96532830	     12.05564845
      2.92000000	     -4.09622689	      0.92405491	    -21.11060219	      1.49566612	      0.93444928	      0.57715985	     25.95438548	     -0.18060177	      1.18863835	    -73.28509662	     16.48117523	      1.12424265	     39.27843781	     -2.47138915	     -5.95242504	    -41.15019480	     11.09045549	     -0.40839222	     -4.73280205	      2.48082956	     11.64500973
      2.93000000	     -4.18619037	      1.30878165	    -21.17847729	      1.50304220	      0.93564651	      0.57816965	     27.48598715	     -0.71823475	      1.10194415	    -74.13648731	     16.59684765	     -0.23827398	     38.93663123	     -2.05823644	     -6.15583025	    -41.03577414	     11.52864146	     -0.70782512	     -4.69572168	      2.12578920	     11.14268608
      2.94000000	     -4.32483137	      1.60589980	    -21.17423187	      1.51010489	      0.93713110	      0.57911161	     28.95336973	     -1.14933591	      0.88841109	    -74.56864651	     16.84187144	     -1.38339644	     38.58595510	     -1.68940646	     -6.24741405	    -40.81359874	     11.87154701	     -0.99442142	     -4.64364274	      1.89169664	     10.56405655
      2.95000000	     -4.50407505	      1.81570455	    -21.09664505	      1.51686415	      0.93887572	      0.58001066	     30.33408368	     -1.47499820	      0.55111065	    -74.59015587	     17.17362314	     -2.26825751	     38.22573274	     -1.36921371	     -6.23166224	    -40.50204097	     12.13155949	     -1.25807644	     -4.58688955	      1.76661148	      9.93267332
      2.96000000	     -4.69338794	      1.95890819	    -20.94029299	      1.52335797	      0.94088976	      0.58084372	     31.59104164	     -1.73247186	      0.10997193	    -74.21661557	     17.58915169	     -2.71075725	     37.82804452	     -1.06074194	     -6.09698800	    -40.09696019	     12.28506846	     -1.42249115	     -4.55336200	      1.71757475	      9.24790003
      2.97000000	     -4.92173992	      2.03586836	    -20.74539838	      1.52960436	      0.94305868	      0.58171838	     32.74916371	     -1.90060695	     -0.42398850	    -73.47032187	     18.01006848	     -3.01387747	     37.43020048	     -0.82127753	     -5.91878927	    -39.63153263	     12.43086111	     -1.59058844	     -4.50269439	      1.74296142	      8.60513830
      2.98000000	     -5.15166259	      2.07126673	    -20.52166517	      1.53564070	      0.94539255	      0.58261492	     33.77512913	     -2.01810361	     -1.01593599	    -72.38210799	     18.44875912	     -3.09424450	     36.99834250	     -0.61289512	     -5.69641824	    -39.10174014	     12.53750753	     -1.71132904	     -4.46613470	      1.80631002	      7.99289227
      2.99000000	     -5.38938889	      2.07228194	    -20.26980976	      1.54147553	      0.94782484	      0.58354594	     34.67466635	     -2.09092624	     -1.65770887	    -70.98511047	     18.88740009	     -2.98571047	     36.54990273	     -0.43224534	     -5.42808253	    -38.52326066	     12.60603200	     -1.80890408	     -4.43152382	      1.89664915	      7.42254980
      3.00000000	     -5.61379468	      2.04264787	    -20.00241204	      1.54714724	      0.95035086	      0.58451444	     35.42303304	     -2.13192674	     -2.33109383	    -69.30857606	     19.31753111	     -2.72557692	     36.06411051	     -0.28006805	     -5.14186349	    -37.90073130	     12.64378823	     -1.86293083	     -4.41798205	      2.00437651	      6.89812870
      3.01000000	     -5.82065445	      1.98205455	    -19.74061239	      1.55267473	      0.95292356	      0.58557084	     36.01548989	     -2.13187912	     -3.01454540	    -67.38959195	     19.74035742	     -2.34379317	     35.54165192	     -0.16582467	     -4.84202256	    -37.25198233	     12.67387266	     -1.88445175	     -4.42335758	      2.12464526	      6.43828316
      3.02000000	     -6.00602542	      1.90069230	    -19.49285839	      1.55805697	      0.95549800	      0.58673750	     36.45397348	     -2.08874244	     -3.67429884	    -65.26605631	     20.13751277	     -1.88830797	     34.98864386	     -0.09089382	     -4.56189143	    -36.58814756	     12.69936009	     -1.87454403	     -4.44841491	      2.24373680	      6.06118005
      3.03000000	     -6.17455834	      1.80203558	    -19.25266134	      1.56333018	      0.95801849	      0.58800874	     36.74303335	     -2.01001541	     -4.30740597	    -62.97497388	     20.48703251	     -1.45051208	     34.41965280	     -0.04790660	     -4.29086442	    -35.92747614	     12.72469501	     -1.84132653	     -4.47741967	      2.36584085	      5.69850451
      3.04000000	     -6.31806607	      1.69157390	    -19.03508759	      1.56849584	      0.96046071	      0.58942370	     36.88143441	     -1.88340332	     -4.86432525	    -60.55659810	     20.82008080	     -0.88476125	     33.83175790	     -0.04321554	     -4.06339015	    -35.27909176	     12.75194206	     -1.78928447	     -4.51620667	      2.47972922	      5.38077947
      3.05000000	     -6.45653751	      1.56324966	    -18.81057528	      1.57357546	      0.96276699	      0.59092564	     36.88925379	     -1.71859916	     -5.37329978	    -58.04689229	     21.03604580	     -0.41057367	     33.24998156	     -0.05852243	     -3.80433829	    -34.65092537	     12.80646788	     -1.73555503	     -4.53900432	      2.60281835	      5.08738122
      3.06000000	     -6.57165040	      1.44019718	    -18.59883770	      1.57856848	      0.96492714	      0.59258369	     36.76642983	     -1.51143742	     -5.75377120	    -55.49195144	     21.22048472	      0.20388637	     32.66558991	     -0.09153041	     -3.58168792	    -34.05156592	     12.86889988	     -1.67122525	     -4.55533958	      2.69574855	      4.81426204
      3.07000000	     -6.68842618	      1.32566771	    -18.37906480	      1.58348875	      0.96686859	      0.59431117	     36.55193094	     -1.27407540	     -6.01179263	    -52.94082564	     21.31340343	      0.83031255	     32.11464405	     -0.12624297	     -3.36054523	    -33.49344316	     12.95633777	     -1.61152453	     -4.53556666	      2.77562212	      4.54681407
